#!OML:ASF F:\VICON\USERDATA\INSTALL\rory3\rory3.ASF
:FULLY-SPECIFIED
:DEGREES
1489
root 0.00667155 17.3057 0.171947 5.81498 -2.05368 -4.86648
lowerback -3.98006 1.70615 -1.79975
upperback -5.31229 2.30007 -0.174206
thorax -3.30554 1.21192 0.849211
lowerneck -15.5937 -10.1032 -12.4934
upperneck 33.739 -17.4002 15.3788
head 17.8774 -7.00837 5.46008
rclavicle 1.54058e-014 -4.77083e-015
rhumerus -5.29782 -53.9349 -45.1559
rradius 117.093
rwrist -57.3427
rhand -52.188 -7.41842
rfingers 7.12502
rthumb -24.6877 -35.8458
lclavicle 1.54058e-014 -4.77083e-015
lhumerus 273.47 -54.7931 -238.168
lradius 101.356
lwrist -2.9103
lhand -10.814 4.33339
lfingers 7.12502
lthumb 15.1997 33.7551
rfemur -1.73856 12.3961 24.0944
rtibia 9.17115
rfoot -10.9289 -10.4868
rtoes -13.4465
lfemur -10.523 -11.8186 -13.0186
ltibia 25.761
lfoot -20.098 8.69329
ltoes -12.2456
1490
root 0.0245399 17.3074 0.165719 5.79393 -2.07373 -4.81022
lowerback -3.89631 1.69406 -1.71653
upperback -5.2913 2.28469 -0.0352318
thorax -3.33247 1.2042 0.943196
lowerneck -15.6794 -10.1269 -12.6257
upperneck 33.7157 -17.3057 15.2061
head 17.8508 -7.00101 5.41712
rclavicle -1.80894e-014 1.35174e-014
rhumerus -3.93845 -54.1555 -45.3167
rradius 116.925
rwrist -57.4082
rhand -52.5228 -7.44778
rfingers 7.12502
rthumb -25.0086 -35.8308
lclavicle -1.80894e-014 1.35174e-014
lhumerus 273.25 -54.9553 -237.825
lradius 101.188
lwrist -3.10153
lhand -11.0747 4.51782
lfingers 7.12502
lthumb 14.9485 33.9584
rfemur -1.79976 12.4928 23.9692
rtibia 9.27957
rfoot -10.9141 -10.6023
rtoes -14.2905
lfemur -10.4805 -11.748 -13.1385
ltibia 25.6719
lfoot -20.0278 8.62166
ltoes -12.319
1491
root 0.0460636 17.3111 0.158872 5.80549 -2.1133 -4.75847
lowerback -3.79055 1.70948 -1.54937
upperback -5.30894 2.30466 0.108922
thorax -3.40978 1.21185 0.994359
lowerneck -15.7406 -10.1687 -12.7675
upperneck 33.7251 -17.2091 14.9481
head 17.8223 -7.00435 5.33819
rclavicle 3.84648e-014 -7.95139e-016
rhumerus -2.4482 -54.4084 -45.4635
rradius 116.716
rwrist -57.4464
rhand -52.855 -7.07753
rfingers 7.12502
rthumb -25.3268 -35.4159
lclavicle 3.84648e-014 -7.95139e-016
lhumerus 272.948 -55.1624 -237.348
lradius 100.965
lwrist -3.27497
lhand -11.3567 4.62043
lfingers 7.12502
lthumb 14.6768 34.081
rfemur -1.89045 12.61 23.8116
rtibia 9.33974
rfoot -10.8624 -10.6649
rtoes -14.769
lfemur -10.4635 -11.7159 -13.2755
ltibia 25.5739
lfoot -19.9034 8.82352
ltoes -13.3917
1492
root 0.0698446 17.315 0.150504 5.81809 -2.07998 -4.57194
lowerback -3.64707 1.7124 -1.43595
upperback -5.35571 2.30691 0.185028
thorax -3.53758 1.21155 1.00354
lowerneck -15.7358 -10.207 -12.8248
upperneck 33.729 -17.119 14.6384
head 17.7561 -7.00898 5.22039
rclavicle -4.27387e-015 -7.95139e-016
rhumerus -0.833451 -54.732 -45.7085
rradius 116.486
rwrist -57.4583
rhand -53.0445 -6.52269
rfingers 7.12502
rthumb -25.5084 -34.8352
lclavicle -4.27387e-015 -7.95139e-016
lhumerus 272.601 -55.3479 -236.934
lradius 100.765
lwrist -3.30841
lhand -11.5068 4.54131
lfingers 7.12502
lthumb 14.5322 34.0123
rfemur -1.99923 12.6402 23.5067
rtibia 9.42691
rfoot -10.8877 -10.7351
rtoes -14.5921
lfemur -10.4531 -11.7659 -13.5582
ltibia 25.4278
lfoot -19.8255 9.00405
ltoes -14.1627
1493
root 0.0944739 17.3172 0.143834 5.81685 -2.05682 -4.42675
lowerback -3.5344 1.69525 -1.27594
upperback -5.40508 2.28387 0.299127
thorax -3.64983 1.19746 1.02684
lowerneck -15.766 -10.211 -12.8997
upperneck 33.8109 -16.9694 14.302
head 17.7281 -6.9924 5.11225
rclavicle 1.17283e-014 6.36111e-015
rhumerus 0.867077 -54.9717 -46.0736
rradius 116.247
rwrist -57.5038
rhand -53.1946 -6.70561
rfingers 7.12502
rthumb -25.6521 -34.9975
lclavicle 1.17283e-014 6.36111e-015
lhumerus 272.15 -55.5431 -236.466
lradius 100.687
lwrist -3.38206
lhand -11.6056 4.60278
lfingers 7.12502
lthumb 14.4371 34.0806
rfemur -2.09554 12.6846 23.2625
rtibia 9.56637
rfoot -10.9467 -10.8203
rtoes -14.8894
lfemur -10.4069 -11.7719 -13.7946
ltibia 25.247
lfoot -19.7948 8.76982
ltoes -12.6681
1494
root 0.121642 17.3197 0.140505 5.7674 -2.14948 -4.25586
lowerback -3.42555 1.72655 -1.07216
upperback -5.42394 2.32511 0.388697
thorax -3.72708 1.21271 1.00128
lowerneck -15.8469 -10.2279 -13.0143
upperneck 33.9134 -16.8397 13.9984
head 17.7408 -6.98268 5.02152
rclavicle 1.32192e-014 -1.03368e-014
rhumerus 2.58047 -55.2201 -46.5112
rradius 115.999
rwrist -57.5327
rhand -53.3948 -7.30349
rfingers 7.12502
rthumb -25.8439 -35.5676
lclavicle 1.32192e-014 -1.03368e-014
lhumerus 271.537 -55.8765 -235.775
lradius 100.531
lwrist -3.6722
lhand -11.8649 4.73838
lfingers 7.12502
lthumb 14.1872 34.2339
rfemur -2.12149 12.8378 22.9775
rtibia 9.70399
rfoot -11.0058 -10.8873
rtoes -15.1202
lfemur -10.2502 -11.7161 -14.1049
ltibia 25.0496
lfoot -19.7326 8.63696
ltoes -11.702
1495
root 0.148568 17.3221 0.138521 5.734 -2.24447 -4.05061
lowerback -3.35364 1.72986 -0.8967
upperback -5.4475 2.33012 0.480839
thorax -3.78884 1.21082 0.995322
lowerneck -15.8871 -10.2196 -13.0585
upperneck 33.9621 -16.6725 13.6599
head 17.6913 -6.95608 4.9092
rclavicle -5.56597e-015 -3.18055e-015
rhumerus 4.39905 -55.3751 -47.0536
rradius 115.724
rwrist -57.457
rhand -53.4073 -8.16925
rfingers 7.12502
rthumb -25.8558 -36.4316
lclavicle -5.56597e-015 -3.18055e-015
lhumerus 270.854 -56.058 -235.1
lradius 100.382
lwrist -4.12018
lhand -12.3786 4.84924
lfingers 7.12502
lthumb 13.6921 34.3788
rfemur -2.15819 12.9911 22.6552
rtibia 9.80937
rfoot -10.9902 -11.0249
rtoes -15.332
lfemur -10.1039 -11.6526 -14.4599
ltibia 24.8542
lfoot -19.5624 8.78593
ltoes -12.3955
1496
root 0.175025 17.3242 0.135187 5.73484 -2.29749 -3.92132
lowerback -3.34843 1.70997 -0.629999
upperback -5.48358 2.30486 0.597724
thorax -3.82272 1.19068 0.966012
lowerneck -15.8382 -10.1739 -13.0975
upperneck 33.9808 -16.4668 13.3565
head 17.6009 -6.91463 4.82413
rclavicle -1.45113e-014 -8.34896e-015
rhumerus 6.30629 -55.513 -47.6751
rradius 115.342
rwrist -57.3957
rhand -53.34 -8.13227
rfingers 7.12502
rthumb -25.7914 -36.404
lclavicle -1.45113e-014 -8.34896e-015
lhumerus 270.354 -56.2463 -234.634
lradius 100.295
lwrist -4.35282
lhand -12.7288 5.06621
lfingers 7.12502
lthumb 13.3546 34.6182
rfemur -2.29812 13.113 22.4225
rtibia 10.0656
rfoot -11.0568 -11.1752
rtoes -15.5177
lfemur -9.99998 -11.6089 -14.7112
ltibia 24.6383
lfoot -19.3594 8.98734
ltoes -13.6747
1497
root 0.20161 17.328 0.128908 5.77131 -2.29912 -3.75382
lowerback -3.31928 1.68623 -0.374213
upperback -5.52579 2.27435 0.695898
thorax -3.87631 1.16787 0.922678
lowerneck -15.8992 -10.1589 -13.1344
upperneck 34.0468 -16.2947 13.023
head 17.5683 -6.88388 4.71528
rclavicle 9.79014e-015 -7.15625e-015
rhumerus 8.32087 -55.7097 -48.4288
rradius 114.912
rwrist -57.2572
rhand -53.3506 -7.98885
rfingers 7.12502
rthumb -25.8015 -36.2591
lclavicle 9.79014e-015 -7.15625e-015
lhumerus 269.839 -56.61 -234.122
lradius 100.201
lwrist -4.47779
lhand -13.1076 5.25269
lfingers 7.12502
lthumb 12.9895 34.8283
rfemur -2.51532 13.1811 22.1469
rtibia 10.3819
rfoot -11.103 -11.3068
rtoes -15.4405
lfemur -9.97174 -11.6173 -14.982
ltibia 24.4264
lfoot -19.176 9.0792
ltoes -14.2009
1498
root 0.226572 17.3311 0.117945 5.92098 -2.18095 -3.42644
lowerback -3.31656 1.6042 -0.29212
upperback -5.62246 2.16768 0.785726
thorax -3.97727 1.11392 0.967904
lowerneck -15.9962 -10.1479 -13.2252
upperneck 34.1122 -16.0946 12.662
head 17.5427 -6.8507 4.60799
rclavicle -2.41026e-015 1.39149e-015
rhumerus 10.4681 -55.925 -49.3498
rradius 114.546
rwrist -57.3061
rhand -53.1158 -8.20428
rfingers 7.12502
rthumb -25.5767 -36.507
lclavicle -2.41026e-015 1.39149e-015
lhumerus 269.178 -56.9274 -233.487
lradius 100.13
lwrist -4.70589
lhand -13.5136 5.26301
lfingers 7.12502
lthumb 12.5981 34.8631
rfemur -2.85901 13.1161 21.683
rtibia 10.6583
rfoot -11.2663 -11.4283
rtoes -14.3898
lfemur -10.1113 -11.6369 -15.3713
ltibia 24.2005
lfoot -18.9858 8.94256
ltoes -13.9516
1499
root 0.251752 17.3344 0.109641 5.97011 -2.19191 -3.19805
lowerback -3.22755 1.5516 -0.128393
upperback -5.71943 2.10288 0.953864
thorax -4.12828 1.07933 1.0458
lowerneck -16.0744 -10.0902 -13.4277
upperneck 34.27 -15.8057 12.3129
head 17.562 -6.79557 4.55262
rclavicle -1.35671e-014 7.15625e-015
rhumerus 12.6968 -56.112 -50.3
rradius 114.193
rwrist -57.5473
rhand -52.7924 -8.48524
rfingers 7.12502
rthumb -25.2669 -36.8321
lclavicle -1.35671e-014 7.15625e-015
lhumerus 268.409 -57.1332 -232.755
lradius 100.159
lwrist -4.82178
lhand -13.809 5.31723
lfingers 7.12502
lthumb 12.3133 34.9347
rfemur -3.09908 13.1849 21.3342
rtibia 10.9361
rfoot -11.4205 -11.5664
rtoes -13.7179
lfemur -10.0641 -11.654 -15.6939
ltibia 23.9141
lfoot -18.8671 8.80282
ltoes -12.9061
1500
root 0.27938 17.3375 0.108692 5.89144 -2.35498 -3.03972
lowerback -3.14247 1.55487 0.122652
upperback -5.73269 2.11348 1.16429
thorax -4.18965 1.07919 1.11985
lowerneck -16.2397 -10.029 -13.6592
upperneck 34.4779 -15.4915 11.9522
head 17.6296 -6.73163 4.50178
rclavicle 6.63444e-015 1.83876e-015
rhumerus 15.1042 -56.2393 -51.3742
rradius 113.745
rwrist -57.542
rhand -52.6113 -8.87746
rfingers 7.12502
rthumb -25.0933 -37.2487
lclavicle 6.63444e-015 1.83876e-015
lhumerus 267.674 -57.3366 -231.971
lradius 100.146
lwrist -4.79203
lhand -14.2237 5.52346
lfingers 7.12502
lthumb 11.9134 35.1645
rfemur -3.16795 13.4088 21.0674
rtibia 11.2057
rfoot -11.5763 -11.6982
rtoes -13.5112
lfemur -9.77593 -11.6936 -16.0189
ltibia 23.5873
lfoot -18.7108 8.98063
ltoes -13.3508
1501
root 0.310071 17.3427 0.110114 5.81099 -2.48025 -2.69617
lowerback -3.1161 1.54871 0.256655
upperback -5.7176 2.10903 1.30142
thorax -4.1893 1.0745 1.18596
lowerneck -16.4044 -9.96093 -13.7269
upperneck 34.6103 -15.1662 11.4949
head 17.6218 -6.65472 4.37596
rclavicle 1.01504e-014 2.33572e-015
rhumerus 17.5164 -56.2869 -52.5299
rradius 113.333
rwrist -57.4077
rhand -52.6893 -8.93994
rfingers 7.12502
rthumb -25.1681 -37.3007
lclavicle 1.01504e-014 2.33572e-015
lhumerus 266.903 -57.5794 -231.141
lradius 100.051
lwrist -4.79227
lhand -14.6099 5.76917
lfingers 7.12502
lthumb 11.541 35.4314
rfemur -3.1853 13.574 20.5747
rtibia 11.3913
rfoot -11.7069 -11.7903
rtoes -13.2523
lfemur -9.48024 -11.7467 -16.5518
ltibia 23.2364
lfoot -18.5437 9.08878
ltoes -13.154
1502
root 0.340761 17.3469 0.10702 5.79512 -2.52376 -2.4203
lowerback -3.08028 1.5106 0.487544
upperback -5.71781 2.0626 1.45449
thorax -4.20667 1.04521 1.21425
lowerneck -16.5826 -9.88868 -13.7019
upperneck 34.6559 -14.8178 10.9621
head 17.5474 -6.56633 4.19986
rclavicle 1.0635e-014 -1.90833e-014
rhumerus 20.0013 -56.2485 -53.8329
rradius 112.984
rwrist -57.3168
rhand -52.9102 -9.14841
rfingers 7.12502
rthumb -25.3798 -37.4792
lclavicle 1.0635e-014 -1.90833e-014
lhumerus 266.239 -57.8628 -230.406
lradius 99.9213
lwrist -4.78648
lhand -14.8601 5.82149
lfingers 7.12502
lthumb 11.2996 35.4971
rfemur -3.31389 13.6586 20.1569
rtibia 11.6245
rfoot -11.8523 -11.8696
rtoes -13.6291
lfemur -9.28525 -11.7329 -16.964
ltibia 22.8379
lfoot -18.3851 8.94277
ltoes -12.1717
1503
root 0.371011 17.3504 0.100667 5.85852 -2.54366 -2.15543
lowerback -3.06674 1.46522 0.703115
upperback -5.76815 2.00884 1.65251
thorax -4.2665 1.01408 1.29767
lowerneck -16.7347 -9.80222 -13.7267
upperneck 34.7115 -14.4253 10.4067
head 17.4713 -6.4717 4.03414
rclavicle 1.38155e-014 -8.34896e-015
rhumerus 22.4488 -56.1531 -55.066
rradius 112.543
rwrist -57.2553
rhand -53.143 -9.43874
rfingers 7.12502
rthumb -25.6027 -37.7377
lclavicle 1.38155e-014 -8.34896e-015
lhumerus 265.557 -58.0957 -229.613
lradius 99.8194
lwrist -4.73724
lhand -15.1454 5.96711
lfingers 7.12502
lthumb 11.0245 35.6576
rfemur -3.60847 13.7282 19.7385
rtibia 11.9791
rfoot -12.0647 -11.9348
rtoes -13.7089
lfemur -9.20332 -11.7782 -17.3281
ltibia 22.4071
lfoot -18.2186 8.76443
ltoes -10.8206
